HIERARCHY
ROOT Hips
{
  OFFSET -31.5692 30.0904 122.763
  CHANNELS 6 Xposition Yposition Zposition Zrotation Xrotation Yrotation
  JOINT LeftUpLeg
  {
    OFFSET 8.64259 1.95398 -2.38835
    CHANNELS 3 Zrotation Xrotation Yrotation
    JOINT LeftLeg
    {
      OFFSET 43.7702 0 0
      CHANNELS 3 Zrotation Xrotation Yrotation
      JOINT LeftFoot
      {
        OFFSET 40.6238 0 0
        CHANNELS 3 Zrotation Xrotation Yrotation
        JOINT LeftToeBase
        {
          OFFSET 12.7242 0 0
          CHANNELS 3 Zrotation Xrotation Yrotation
          End Site
          {
            OFFSET 0 0 0
          }
        }
      }
    }
  }
  JOINT RightUpLeg
  {
    OFFSET -8.2249 1.95398 -2.59336
    CHANNELS 3 Zrotation Xrotation Yrotation
    JOINT RightLeg
    {
      OFFSET 43.5653 0 0
      CHANNELS 3 Zrotation Xrotation Yrotation
      JOINT RightFoot
      {
        OFFSET 40.6238 0 0
        CHANNELS 3 Zrotation Xrotation Yrotation
        JOINT RightToeBase
        {
          OFFSET 12.7242 0 0
          CHANNELS 3 Zrotation Xrotation Yrotation
          End Site
          {
            OFFSET 0 0 0
          }
        }
      }
    }
  }
  JOINT Spine
  {
    OFFSET 0.165834 0.87714 6.61349
    CHANNELS 3 Zrotation Xrotation Yrotation
    JOINT Spine1
    {
      OFFSET 7.38963 1.71661e-005 0
      CHANNELS 3 Zrotation Xrotation Yrotation
      JOINT Spine2
      {
        OFFSET 11.9445 1.14441e-005 0
        CHANNELS 3 Zrotation Xrotation Yrotation
        JOINT Spine3
        {
          OFFSET 14.7254 4.19617e-005 0
          CHANNELS 3 Zrotation Xrotation Yrotation
          JOINT Spine4
          {
            OFFSET 10.9679 0 0
            CHANNELS 3 Zrotation Xrotation Yrotation
            JOINT RightShoulder
            {
              OFFSET 2.46616 -1.6653 3.69651
              CHANNELS 3 Zrotation Xrotation Yrotation
              JOINT RightArm
              {
                OFFSET 13.0012 0 0
                CHANNELS 3 Zrotation Xrotation Yrotation
                JOINT RightForeArm
                {
                  OFFSET 28.7848 1.62311e-005 0
                  CHANNELS 3 Zrotation Xrotation Yrotation
                  JOINT RightHand
                  {
                    OFFSET 26.5688 1.62095e-005 0
                    CHANNELS 3 Zrotation Xrotation Yrotation
                    End Site
                    {
                      OFFSET 0 0 0
                    }
                  }
                }
              }
            }
            JOINT LeftShoulder
            {
              OFFSET 2.38034 -1.29275 -3.7523
              CHANNELS 3 Zrotation Xrotation Yrotation
              JOINT LeftArm
              {
                OFFSET 16.3182 6.07031e-005 0
                CHANNELS 3 Zrotation Xrotation Yrotation
                JOINT LeftForeArm
                {
                  OFFSET 27.0901 0 0
                  CHANNELS 3 Zrotation Xrotation Yrotation
                  JOINT LeftHand
                  {
                    OFFSET 24.5451 1.51738e-005 0
                    CHANNELS 3 Zrotation Xrotation Yrotation
                    End Site
                    {
                      OFFSET 0 0 0
                    }
                  }
                }
              }
            }
            JOINT Neck
            {
              OFFSET 5.0226 -0.0266342 0
              CHANNELS 3 Zrotation Xrotation Yrotation
              JOINT Head
              {
                OFFSET 6.69364 2.86102e-005 0
                CHANNELS 3 Zrotation Xrotation Yrotation
                End Site
                {
                  OFFSET 0 0 0
                }
              }
            }
          }
        }
      }
    }
  }
}
MOTION
Frames:	13
Frame Time:	0.0416667
-347.116 93.3175 319.995 105.592 67.7075 76.262 -175.353 7.98295 86.2169 -34.6685 28.0802 0.63128 77.2921 10.5287 -0.0556374 18.6082 -7.11793 4.70539 162.934 -22.8923 89.8761 -29.6356 2.73216 12.2555 54.9338 3.73698 1.51412 20.5801 1.87412 7.02786 -2.36804 6.93974 -89.6683 13.0286 -4.54167 1.2193 1.36483 -4.48361 1.41837 -21.2343 -4.69769 -0.205028 -1.22162 -4.69771 -0.20503 93.783 -32.1331 -98.6272 42.232 -8.7376 4.44603 -168.392 4.61221 179.995 18.5558 -1.65874 -33.569 -88.7835 -57.8163 81.9611 -12.4148 6.94712 4.84664 -2.73273 23.8663 -0.00399777 14.6994 -2.01188 -18.7498 -1.40617 -0.810924 -2.62091 -6.83913 -0.491482 0.719505 
-346.276 95.5308 317.915 102.484 57.4755 78.3877 -175.675 -2.04203 84.661 -18.5928 17.8636 -0.39961 73.0442 8.32443 -0.985567 19.0388 -6.75026 4.4344 162.822 -5.71421 87.4006 -47.0711 -15.5168 3.6294 64.5522 -2.17259 -2.42063 24.758 0.848055 4.27741 -1.65134 7.56655 -89.6563 11.7581 -3.12274 1.01338 0.0904563 -3.07512 1.14994 -22.4751 -3.2828 0.027027 -2.46243 -3.28281 0.0270167 91.935 -30.8168 -102.634 41.2509 -7.0252 1.52294 -170.77 5.45929 179.995 2.22868 0.33726 -41.545 -87.2697 -55.8712 83.7563 -13.4975 12.8769 -9.2165 -2.58179 0.417219 -2.7976 5.87083 -0.0610476 -7.5372 3.56349 0.595094 -1.34759 -6.01964 0.825511 0.101797 
-345.094 96.2328 317.17 98.3366 50.6525 83.6221 -175.433 -4.76955 84.7933 -12.2752 10.0295 -0.0943904 71.6656 7.76675 -3.00876 19.1689 -7.07857 5.32212 171.606 10.3142 86.4662 -48.5954 -7.90962 -1.12389 70.631 -5.05629 0.704539 20.2642 3.78626 1.12506 -1.18185 7.90808 -89.7915 11.0655 -2.25585 0.632021 -0.603742 -2.22584 0.730729 -23.1545 -2.34146 -0.0755393 -3.14186 -2.34145 -0.0755347 89.7889 -30.9486 -106.813 39.7652 -6.10668 0.543215 -172.111 16.5339 178.976 -7.11471 5.20002 -64.8347 -87.5229 -51.2888 82.6585 -14.9234 15.1186 -20.2821 -0.848514 -5.99071 -4.5462 9.10072 -0.772202 -10.5728 5.80459 1.44754 -4.79144 -4.47124 2.31467 2.35619 
-341.941 95.6421 314.968 97.0937 45.7529 86.6389 -173.979 -6.17103 86.7839 -13.9349 6.76591 0.014317 75.3093 8.85996 -2.26675 19.6715 -7.22087 6.22134 177.58 17.175 92.307 -34.3866 -3.59533 -2.22722 67.8277 -3.64576 2.48985 21.749 3.90554 -2.06541 -0.700563 8.02227 -89.9956 10.8307 -1.39291 0.138888 -0.839474 -1.38543 0.200063 -23.3805 -1.37023 -0.286246 -3.36781 -1.37024 -0.28624 89.5593 -31.5369 -107.038 39.0854 -4.84195 1.75701 -7.86908 -54.2691 -21.633 -36.4349 7.77212 -33.9898 -88.6763 -49.8437 80.6807 -16.0784 6.86199 -27.6298 -2.528 13.4701 -3.49213 9.33672 -1.47723 -20.2356 5.53012 1.41285 -7.63285 -2.76712 2.84011 3.72443 
-337.344 94.1468 311.371 95.4846 43.1423 90.0132 -172.051 -7.39516 89.4004 -17.4527 5.42945 -0.0997406 81.0555 10.3703 -3.05491 21.3833 -7.19063 8.36722 179.782 16.8651 95.7619 -8.59105 -8.52286 -0.46149 59.5288 -1.82588 -3.07707 25.9458 0.309312 4.43465 -0.330834 8.04692 -90.2384 10.7786 -0.768711 -0.402861 -0.892149 -0.785727 -0.36864 -23.4281 -0.612085 -0.615262 -3.41542 -0.61212 -0.61528 90.1479 -32.0024 -105.73 39.4218 -4.05337 3.08833 2.88674 -26.2574 -17.8038 -31.4594 1.83324 -16.3303 -88.8449 -47.8385 80.0248 -16.8565 6.95176 -34.489 -0.870499 18.8007 -3.6308 10.4305 -1.87189 -22.5051 6.72158 0.755147 -9.81988 -3.2938 2.6914 3.90306 
-331.561 92.1431 306.362 94.4695 42.5893 91.8473 -169.628 -12.3777 92.1171 -16.3335 5.28475 -0.769319 85.58 13.2703 -3.9763 22.5583 -6.14348 7.56658 -179.204 22.8126 98.3337 -6.89419 -6.11759 0.350632 64.4297 -2.81761 -0.974176 25.9493 0.381237 4.10399 -0.273481 7.99063 -90.3961 10.8904 -0.727522 -0.718783 -0.780562 -0.758468 -0.686076 -23.315 -0.477883 -0.904199 -3.30234 -0.477885 -0.904201 89.38 -33.237 -106.748 38.8854 -3.21335 4.67209 3.14605 -26.7204 -16.7059 -25.1327 0.58062 -12.8575 -89.0758 -48.0892 79.7261 -15.9343 6.63731 -37.5808 0.467315 23.919 -4.38387 10.6883 -1.82576 -22.5175 6.51852 1.01892 -10.4093 -2.67154 3.07222 3.59647 
-324.919 90.362 300.391 95.2519 43.0105 92.1243 -166.904 -19.5121 95.0796 -13.9215 6.15322 -0.98438 86.7186 14.991 -4.2546 25.4174 -5.52618 10.2045 -178.743 24.7876 100.177 -13.2333 -6.7002 0.517724 61.6371 -0.690538 -1.77299 25.6613 0.755522 3.03815 -0.296156 7.97878 -90.6115 10.9094 -0.872425 -1.13498 -0.761695 -0.921546 -1.09549 -23.2938 -0.491017 -1.34467 -3.28112 -0.49101 -1.34467 89.271 -33.6668 -106.804 38.8176 -2.16134 6.05418 3.71629 -27.2631 -14.6394 -22.4408 -0.178136 -9.50009 -90.1662 -48.9192 78.2416 -15.6465 6.43656 -37.0797 0.908437 27.3889 -3.19802 8.39593 -1.34966 -23.2171 5.32686 1.21852 -9.08905 -1.67797 2.93047 2.94966 
-317.817 90.5361 293.608 96.5632 45.9379 92.2632 -164.386 -22.1115 99.2262 -18.1463 11.3298 0.295504 79.2932 12.3184 -0.0881217 31.4949 -2.40844 11.622 -179.959 26.0184 101.089 -26.283 -8.13463 0.8366 60.0496 1.77583 -0.714722 20.4949 3.26332 2.27846 -0.562359 8.02544 -90.9264 10.8109 -1.54744 -1.69822 -0.860175 -1.62066 -1.62849 -23.3899 -0.965631 -2.08465 -3.37722 -0.965642 -2.08466 90.0153 -33.3107 -105.524 38.6716 -1.59617 5.97744 5.14047 -28.7785 -11.3352 -20.9384 -0.0962643 -10.5985 -89.5131 -48.2272 79.0829 -17.64 8.00176 -33.5788 -0.756334 30.336 -0.361732 6.75335 -0.651671 -20.7862 8.30056 0.929835 -7.20529 -4.82837 2.3978 3.17175 
-311.73 91.8727 287.058 99.1144 47.379 89.0687 -166.866 -15.4513 98.3607 -37.919 17.3806 2.83112 65.2688 3.03124 1.37436 26.3269 -3.42186 6.13122 178.175 21.5038 99.973 -32.922 -8.86946 1.07292 64.3847 -1.25206 -1.38679 21.6704 2.5899 2.7707 -0.635787 8.09192 -90.8867 10.6759 -1.67444 -1.61008 -0.99488 -1.74368 -1.53483 -23.5265 -1.11325 -2.03877 -3.51385 -1.11325 -2.03877 89.873 -32.505 -106.077 38.8074 -1.46049 5.91947 5.86591 -27.9989 -9.80843 -20.0746 -0.280474 -9.33122 -89.5749 -48.5075 79.0491 -19.2051 9.35802 -28.1944 -2.43187 27.6814 -0.0043344 5.26671 -0.296097 -20.4056 7.51893 0.998809 -5.33983 -4.16656 2.0577 2.49296 
-306.016 93.6164 281.966 99.9101 47.5355 89.0321 -167.858 -0.693978 100.195 -58.2498 18.3426 3.34768 56.0062 -3.58711 -0.925324 10.3183 -6.73713 -4.736 178.264 14.0402 100.961 -29.937 -9.00687 1.09124 66.9196 -3.34866 -2.16401 23.1634 1.94882 2.66521 -0.301377 8.15788 -90.8937 10.5477 -1.01068 -1.68643 -1.12384 -1.08392 -1.64032 -23.6512 -0.457232 -1.91213 -3.63854 -0.457225 -1.91213 89.4317 -32.2796 -107.004 38.0379 -2.20117 3.94068 5.50531 -27.6507 -10.9591 -21.9183 -0.153977 -9.60047 -88.6659 -48.8524 80.5016 -20.6728 8.81657 -21.9393 -2.48113 23.1877 -0.00416863 6.0084 -0.397925 -18.7422 7.00358 -0.24362 -4.83875 -4.49337 0.713807 1.68825 
-301.404 95.083 276.982 99.2277 48.8486 87.4039 -170.51 12.6343 95.6372 -64.7959 12.1703 2.61377 64.9425 2.1791 1.24142 12.0582 -9.84293 2.82013 177.401 7.69041 99.0179 -26.0788 -8.92856 0.508428 69.157 -4.61393 -1.76531 23.7628 1.82266 2.10978 0.00867849 8.11969 -90.6313 10.6322 -0.273186 -1.22917 -1.0393 -0.327015 -1.21596 -23.5697 0.108837 -1.25445 -3.55709 0.108821 -1.25445 89.4372 -31.4836 -107.291 36.4482 -3.01323 1.44697 4.15218 -27.4898 -14.0398 -31.012 -0.214917 -8.26456 -88.52 -49.6599 80.8785 -21.3413 7.37869 -14.461 -2.24378 20.0864 0.0392148 6.38407 -0.491147 -17.5903 4.42462 -1.74422 -4.02039 -3.30132 -0.999332 0.358205 
-296.777 95.7185 271.65 98.4606 48.0234 85.0846 -172.404 21.5894 90.4524 -55.8173 5.96038 0.618609 67.4041 3.9234 0.911949 13.4991 -10.5285 5.59404 176.335 2.15854 96.0894 -24.3704 -10.9432 -0.895848 72.3797 -6.05467 -1.55562 24.2294 1.81406 1.29795 0.44377 8.17709 -90.2233 10.5231 0.781408 -0.513605 -1.14775 0.758027 -0.547507 -23.6846 0.899641 -0.255008 -3.67194 0.899639 -0.25501 89.8904 -30.4229 -106.815 33.927 -4.20627 -3.0923 3.11697 -28.4312 -16.5473 -23.65 0.0883925 -11.4008 -87.9142 -49.1064 81.6915 -21.8496 7.31246 -6.69139 -2.18751 15.3267 -0.327219 6.35045 -0.83766 -19.4291 2.83401 -2.89574 -2.92162 -2.61572 -2.38732 -1.26326 
-291.926 95.0966 265.593 98.446 46.7684 83.6475 -174.49 24.2946 87.5888 -35.0939 1.00657 -1.05171 65.1638 3.2408 -1.48703 16.4646 -9.74284 7.50274 174.203 -3.62298 93.4411 -23.8818 -14.3458 -1.13935 76.1261 -8.58113 -2.23291 25.4154 1.39089 0.788922 0.756629 8.28911 -90.0776 10.2981 1.47201 -0.281107 -1.37208 1.45822 -0.345637 -23.9139 1.48843 0.174391 -3.90126 1.48843 0.174394 88.7668 -29.9406 -109.219 28.5644 -3.98063 -7.00743 1.72467 -29.9211 -18.585 -27.1404 -0.310589 -8.65981 -87.8772 -51.2787 82.1346 -20.6355 6.2727 1.33005 -1.21673 12.3183 -3.80281 4.47823 -0.775466 -21.4138 1.9957 -3.12968 0.442022 -1.82224 -3.20917 -3.46366 
